<svg id="Layer_1" data-name="Layer 1" xmlns="http://www.w3.org/2000/svg" viewBox="0 0 566.93 566.93"><defs><style>.cls-1{fill:#b4b4b4;}</style></defs><title>email</title><polygon class="cls-1" points="208.68 283.51 117.05 373.41 117.05 190.85 208.68 283.51"/><path class="cls-1" d="M136,167.93H418.91c-35.37,38.84-70.37,81.88-111,118.64-10,9-44.53,4.76-57.38-5.87C211.42,248.28,177.5,209.72,136,167.93Z"/><path class="cls-1" d="M343,313.7l86.37,85.18H138.71c33.6-32.05,63.52-60.57,89.31-85.18Z"/><polygon class="cls-1" points="359.69 284.91 451.18 192.16 451.18 375.96 359.69 284.91"/><path class="cls-1" d="M283.46,0C126.91,0,0,126.91,0,283.46S126.91,566.93,283.46,566.93,566.93,440,566.93,283.46,440,0,283.46,0Zm162,426.91c-54.89-1.23-109.82-.37-164.73-.37-53.71,0-107.43-.87-161.12.38-23.32.54-31.22-7.56-30.89-31,1.11-75.16,1-150.38,0-225.57-.28-23.69,9.23-30.89,31.92-30.72,108.61.75,217.23,1,325.84-.07,25.55-.25,33,9.39,32.61,33.63-1,74-1.35,148,.15,222C479.79,421.52,469.19,427.46,445.49,426.91Z"/></svg>