<svg id="Layer_1" data-name="Layer 1" xmlns="http://www.w3.org/2000/svg" viewBox="0 0 566.93 566.93"><defs><style>.cls-1{fill:#b4b4b4;}</style></defs><title>facebook</title><path class="cls-1" d="M566.92,287.52c-1.31,142-107,259.05-244,278.13V389.23c0-2.12.48-2.82,2.71-2.82,20.16.09,40.35,0,60.51.11,2.21,0,3-.58,3.29-2.71,2.65-17.91,5.43-35.79,8.15-53.68,1.2-7.8,2.32-15.62,3.65-23.41.33-2-.22-2.36-2.1-2.36-24.51.06-49,0-73.56.07-2,0-2.67-.44-2.65-2.57.11-18.13-.22-36.25.22-54.38.35-13.88,5.44-25.79,17.72-33.56,8-5,17-6.72,26.29-6.81q17.67-.2,35.34,0c1.88,0,2.36-.6,2.36-2.4q-.11-32.64,0-65.28c0-1.78-.5-2.41-2.32-2.67A474.65,474.65,0,0,0,354.93,132c-15.45-.78-30.82-.47-45.93,3.36-38.72,9.83-62,34.73-71.23,73.3a135.4,135.4,0,0,0-3.5,32c0,20.43,0,40.83.07,61.26,0,2.11-.57,2.6-2.65,2.59-22.27-.07-44.59,0-66.89-.09-2.1,0-2.63.51-2.61,2.61q.1,38.44,0,76.91c0,2.28.72,2.66,2.79,2.66,22.23-.08,44.46,0,66.67-.11,2.25,0,2.69.68,2.69,2.82q-.08,86,0,172.13v2.75q-10.92-1.9-21.54-4.68C90.41,528,0,417,0,284.81,0,141.69,106,23.32,243.82,4L244,4q5.26-.73,10.61-1.28,8.85-.91,17.87-1.25c1.15,0,2.3-.08,3.45-.1l2.38,0,2.47,0h4.35l2.47,0h.32c1.13,0,2.26,0,3.38.07,3.45.09,6.87.25,10.29.46L303.8,2l1.94.15c1.19.09,2.39.19,3.58.3,3.57.33,7.13.72,10.66,1.18A282.56,282.56,0,0,1,471.57,73.12c1.39,1.24,2.77,2.49,4.12,3.76C532.35,129.34,567.68,204.55,566.92,287.52Z"/></svg>