<svg id="Layer_1" data-name="Layer 1" xmlns="http://www.w3.org/2000/svg" viewBox="0 0 566.93 566.93"><defs><style>.cls-1{fill:#b4b4b4;}</style></defs><title>lakhely</title><rect class="cls-1" x="247.43" y="270.2" width="71.73" height="95.11"/><path class="cls-1" d="M346.49,272.49c.85-22.54-8.16-29.5-30.47-30-95.35-2.23-95.29-2.85-96.42,92.62-.1,10.18-.86,20.31-1.39,31.83l-47.94,0c0-48.52-.23-97.63.38-146.72.09-4.6,4.7-9.86,8.51-13.45,4.1-3.85,9.75-6,14.67-9,94.1-57.08,94.22-57.28,185.34,4,7.76,5.22,17.41,14.84,17.7,22.71,1.65,47,.82,94.11.82,142.53H346.2C346.2,334.35,345.34,303.38,346.49,272.49Z"/><path class="cls-1" d="M424.67,395c7.8.06,15.58,7.78,23.4,11.94-8.1,3.84-16.15,10.79-24.33,11-47.33,1.06-94.67.53-142,.53v-.12h0c-46.17,0-92.36.46-138.49-.47-7.27-.16-14.41-6.54-21.61-10.05,7.51-4.41,15-12.61,22.54-12.67Q284.41,393.78,424.67,395Z"/><path class="cls-1" d="M266.87,124.77c-43.34,29.3-85.78,59.91-128.84,89.65-3.26,2.25-8.82,1.15-13.31,1.61l-8.42-8.14c7.37-9.29,13-21.39,22.44-27.43,41-26.15,82.42-51.71,125.21-74.69,10.43-5.59,29.1-5.25,39.65.43,42.8,23,83.94,49,125.53,74.21,5.82,3.52,13.7,7.3,15.57,12.74,2.21,6.27-1.1,14.51-2,21.88-6.85-2.26-14.62-3.17-20.39-7C378.78,178.89,336,148.67,292,120.37,286.65,116.9,273.51,120.28,266.87,124.77Z"/><path class="cls-1" d="M283.46,0C126.9,0,0,126.92,0,283.46S126.9,566.93,283.46,566.93,566.93,440,566.93,283.46,440,0,283.46,0Zm189,419.14c-2.29,9.78-15.83,24-24.34,24.16-110.09,1.62-220.22.85-330.32,1.21-24.53.07-25.39-16-23.77-32.89,1.68-17.32-9.87-43,23.63-43.27,6.89-.07,13.81,0,24.85,0,.73-11.57,1.61-19.44,1.65-27.33.17-31.14.08-62.26.08-96.52-35.57,2.5-59.74-7.38-49.93-47.13,2.72-11,8.89-24.48,17.74-30.1,49.8-31.68,100.27-62.57,152.11-90.66,11.08-6,31.52-4.11,43.28,2.23,44.79,24.16,86.53,54.07,131.87,77,30.81,15.59,41.78,38.49,31.67,66.79-4.59,12.89-27.46,19.29-47.35,32V366.25C464.46,360.78,481.45,380.62,472.46,419.14Z"/></svg>