<svg id="Layer_1" data-name="Layer 1" xmlns="http://www.w3.org/2000/svg" viewBox="0 0 566.93 566.93"><defs><style>.cls-1{fill:#fff;}</style></defs><title>telefon-01</title><path class="cls-1" d="M405.66,396.83c15.33,20,16.16,36.46-10.47,47.53-17.29,7.17-34.12,15.45-52,23.65h0c-20.51-8.24-41-12.84-57.37-23.67C199.38,387.16,153.46,305.85,151.4,202.1c-.37-20.1,6.19-44.93,18.85-59.48,14.6-16.81,40.44-34.89,59.61-33.11,14.51,1.36,28.61,31.89,37.7,51.81,2.83,6.22-9,25.64-18.19,29.63-29.91,13-32.59,35.65-28.78,62.41,6.19,43.37,26.7,78.72,60.32,106.71,22.13,18.41,43.3,27.9,71,7.35C387.56,341,392,379.05,405.66,396.83Z"/><path class="cls-1" d="M283.46,0C126.91,0,0,126.91,0,283.46S126.91,566.93,283.46,566.93,566.93,440,566.93,283.46,440,0,283.46,0ZM418.31,463.58c-57.46,36.51-106.57,35.83-161.83-5C172.42,396.54,131,311.31,122.08,219c-.31-73.31,34.14-121.69,92.44-140.17,2.41-.77,4.84-2,7.31-2,47.21-1.36,53.48,41,71,69.39,13.17,21.32,11.06,47.25-14,59.33-43.06,20.79-33.6,52.09-18.6,82.53,9.22,18.63,25.9,33.69,39.77,49.86,20.95,24.46,38.47,2.06,57.11-4.67,4.72-1.71,9.61-3.75,14.54-4.08,25.7-1.88,56.52,31.63,70.37,76.65C449.93,431.37,440.86,449.25,418.31,463.58Z"/></svg>